<svg xmlns="http://www.w3.org/2000/svg"  width="300" height="300" viewBox="0 0 24 24">
    <path fill="#0384fc"
        d="M10 20h3.627a5.25 5.25 0 1 1 8.369-6.34C22 13.153 22 12.6 22 12c0-.442 0-1.608-.002-2H2.002C2 10.392 2 11.558 2 12c0 3.771 0 5.657 1.172 6.828C4.343 20 6.229 20 10 20"
        opacity=".5" />
    <path fill="#0384fc"
        d="M5.25 16a.75.75 0 0 1 .75-.75h4a.75.75 0 0 1 0 1.5H6a.75.75 0 0 1-.75-.75" />
    <path fill="#026ac9" fill-rule="evenodd"
        d="M17.75 14.5a2.25 2.25 0 1 0 0 4.5a2.25 2.25 0 0 0 0-4.5M14 16.75a3.75 3.75 0 1 1 6.879 2.068l.901.902a.75.75 0 1 1-1.06 1.06l-.902-.901A3.75 3.75 0 0 1 14 16.75"
        clip-rule="evenodd" />
    <path fill="#026ac9"
        d="M9.995 4h4.01c3.781 0 5.672 0 6.846 1.116c.846.803 1.083 1.96 1.149 3.884v1H2V9c.066-1.925.303-3.08 1.149-3.884C4.323 4 6.214 4 9.995 4" />
</svg>